<svg width="20" height="11" viewBox="0 0 20 11" fill="none" xmlns="http://www.w3.org/2000/svg">
<path opacity="0.4" d="M18.6406 7.30469C18.6406 7.96094 18.4063 8.52344 17.9375 8.99219C17.4688 9.46094 16.9063 9.69531 16.25 9.69531L4.25 9.69531C3.59375 9.69531 3.03125 9.46094 2.5625 8.99219C2.09375 8.52344 1.85938 7.96094 1.85938 7.30469L1.85938 3.69531C1.85938 3.03906 2.09375 2.47656 2.5625 2.00781C3.03125 1.53906 3.59375 1.30469 4.25 1.30469L16.25 1.30469C16.9062 1.30469 17.4688 1.53906 17.9375 2.00781C18.4062 2.47656 18.6406 3.03906 18.6406 3.69531L18.6406 7.30469ZM19.8594 3.69531C19.8594 2.71094 19.5078 1.86719 18.8047 1.16406C18.1016 0.460937 17.25 0.109375 16.25 0.109375L4.25 0.109375C3.25 0.109375 2.39844 0.460937 1.69531 1.16406C0.992188 1.86719 0.640625 2.71094 0.640625 3.69531L0.640625 7.30469C0.640625 8.28906 0.992188 9.13281 1.69531 9.83594C2.39844 10.5391 3.25 10.8906 4.25 10.8906L16.25 10.8906C17.25 10.8906 18.1016 10.5391 18.8047 9.83594C19.5078 9.13281 19.8594 8.28906 19.8594 7.30469L19.8594 3.69531Z" fill="#949494"/>
</svg>
