<svg width="15" height="21" viewBox="0 0 15 21" fill="none" xmlns="http://www.w3.org/2000/svg">
<path opacity="0.4" d="M10.8594 2.10938C11.5156 2.10938 12.0781 2.34375 12.5469 2.8125C13.0156 3.28125 13.25 3.84375 13.25 4.5V16.5C13.25 17.1562 13.0156 17.7188 12.5469 18.1875C12.0781 18.6562 11.5156 18.8906 10.8594 18.8906H3.64062C2.98438 18.8906 2.42188 18.6562 1.95312 18.1875C1.48438 17.7188 1.25 17.1562 1.25 16.5V4.5C1.25 3.84375 1.48438 3.28125 1.95312 2.8125C2.42188 2.34375 2.98438 2.10938 3.64062 2.10938H10.8594ZM3.64062 0.890625C2.65625 0.890625 1.8125 1.24219 1.10938 1.94531C0.40625 2.64844 0.0546875 3.5 0.0546875 4.5V16.5C0.0546875 17.5 0.40625 18.3516 1.10938 19.0547C1.8125 19.7578 2.65625 20.1094 3.64062 20.1094H10.8594C11.8438 20.1094 12.6875 19.7578 13.3906 19.0547C14.0938 18.3516 14.4453 17.5 14.4453 16.5V4.5C14.4453 3.5 14.0938 2.64844 13.3906 1.94531C12.6875 1.24219 11.8438 0.890625 10.8594 0.890625H3.64062Z" fill="#949494"/>
</svg>
