<svg width="20" height="15" viewBox="0 0 20 15" fill="none" xmlns="http://www.w3.org/2000/svg">
<path opacity="0.4" d="M1.35937 3.89062C1.35937 3.23437 1.59375 2.67187 2.0625 2.20312C2.53125 1.73437 3.09375 1.5 3.75 1.5L15.75 1.5C16.4062 1.5 16.9687 1.73437 17.4375 2.20312C17.9062 2.67187 18.1406 3.23437 18.1406 3.89062L18.1406 11.1094C18.1406 11.7656 17.9062 12.3281 17.4375 12.7969C16.9687 13.2656 16.4062 13.5 15.75 13.5L3.75 13.5C3.09375 13.5 2.53125 13.2656 2.0625 12.7969C1.59375 12.3281 1.35937 11.7656 1.35937 11.1094L1.35937 3.89062ZM0.140625 11.1094C0.140625 12.0937 0.492187 12.9375 1.19531 13.6406C1.89844 14.3437 2.75 14.6953 3.75 14.6953L15.75 14.6953C16.75 14.6953 17.6016 14.3437 18.3047 13.6406C19.0078 12.9375 19.3594 12.0937 19.3594 11.1094L19.3594 3.89062C19.3594 2.90625 19.0078 2.0625 18.3047 1.35937C17.6016 0.656249 16.75 0.304687 15.75 0.304687L3.75 0.304687C2.75 0.304687 1.89844 0.65625 1.19531 1.35937C0.492187 2.0625 0.140624 2.90625 0.140624 3.89062L0.140625 11.1094Z" fill="#949494"/>
</svg>
