<svg width="12" height="21" viewBox="0 0 12 21" fill="none" xmlns="http://www.w3.org/2000/svg">
<path opacity="0.4" d="M3.94531 18.8906C3.28906 18.8906 2.72656 18.6562 2.25781 18.1875C1.78906 17.7187 1.55469 17.1562 1.55469 16.5L1.55469 4.5C1.55469 3.84375 1.78906 3.28125 2.25781 2.8125C2.72656 2.34375 3.28906 2.10937 3.94531 2.10937L7.55469 2.10937C8.21094 2.10937 8.77344 2.34375 9.24219 2.8125C9.71094 3.28125 9.94531 3.84375 9.94531 4.5L9.94531 16.5C9.94531 17.1562 9.71094 17.7187 9.24219 18.1875C8.77344 18.6562 8.21094 18.8906 7.55469 18.8906L3.94531 18.8906ZM7.55469 20.1094C8.53906 20.1094 9.38281 19.7578 10.0859 19.0547C10.7891 18.3516 11.1406 17.5 11.1406 16.5L11.1406 4.5C11.1406 3.5 10.7891 2.64844 10.0859 1.94531C9.38281 1.24219 8.53906 0.890625 7.55469 0.890625L3.94531 0.890624C2.96094 0.890624 2.11719 1.24219 1.41406 1.94531C0.710937 2.64844 0.359375 3.5 0.359375 4.5L0.359374 16.5C0.359374 17.5 0.710937 18.3516 1.41406 19.0547C2.11719 19.7578 2.96094 20.1094 3.94531 20.1094L7.55469 20.1094Z" fill="#949494"/>
</svg>
