<svg width="21" height="21" viewBox="0 0 21 21" fill="none" xmlns="http://www.w3.org/2000/svg">
<path d="M10.6035 8.11328C10.8066 8.11328 10.9785 8.18359 11.1191 8.32422C11.2754 8.46484 11.3535 8.64453 11.3535 8.86328V14.3477C11.3535 14.5664 11.2754 14.7461 11.1191 14.8867C10.9785 15.0273 10.8066 15.0977 10.6035 15.0977C10.4004 15.0977 10.2207 15.0273 10.0645 14.8867C9.92383 14.7461 9.85352 14.5664 9.85352 14.3477V8.86328C9.85352 8.64453 9.92383 8.46484 10.0645 8.32422C10.2207 8.18359 10.4004 8.11328 10.6035 8.11328ZM11.3535 5.86328C11.3535 5.64453 11.2754 5.46484 11.1191 5.32422C10.9785 5.18359 10.8066 5.11328 10.6035 5.11328C10.4004 5.11328 10.2207 5.18359 10.0645 5.32422C9.92383 5.46484 9.85352 5.64453 9.85352 5.86328V6.35547C9.85352 6.55859 9.92383 6.73828 10.0645 6.89453C10.2207 7.03516 10.4004 7.10547 10.6035 7.10547C10.8066 7.10547 10.9785 7.03516 11.1191 6.89453C11.2754 6.73828 11.3535 6.55859 11.3535 6.35547V5.86328ZM10.6035 20.1133C9.22852 20.1133 7.93164 19.8477 6.71289 19.3164C5.49414 18.8008 4.43164 18.0898 3.52539 17.1836C2.61914 16.2773 1.9082 15.2148 1.39258 13.9961C0.861328 12.7773 0.595703 11.4805 0.595703 10.1055C0.595703 8.73047 0.861328 7.43359 1.39258 6.21484C1.9082 4.99609 2.61914 3.93359 3.52539 3.02734C4.43164 2.12109 5.49414 1.41016 6.71289 0.894531C7.93164 0.363281 9.22852 0.0976562 10.6035 0.0976562C11.9785 0.0976562 13.2754 0.363281 14.4941 0.894531C15.7129 1.41016 16.7754 2.12109 17.6816 3.02734C18.5879 3.93359 19.2988 4.99609 19.8145 6.21484C20.3457 7.43359 20.6113 8.73047 20.6113 10.1055C20.6113 11.4805 20.3457 12.7773 19.8145 13.9961C19.2988 15.2148 18.5879 16.2773 17.6816 17.1836C16.7754 18.0898 15.7129 18.8008 14.4941 19.3164C13.2754 19.8477 11.9785 20.1133 10.6035 20.1133ZM10.6035 18.6133C11.7754 18.6133 12.877 18.3867 13.9082 17.9336C14.9395 17.4961 15.8379 16.8945 16.6035 16.1289C17.3848 15.3477 17.9941 14.4414 18.4316 13.4102C18.8848 12.3789 19.1113 11.2773 19.1113 10.1055C19.1113 8.93359 18.8848 7.83203 18.4316 6.80078C17.9941 5.76953 17.3848 4.87109 16.6035 4.10547C15.8379 3.32422 14.9395 2.71484 13.9082 2.27734C12.877 1.82422 11.7754 1.59766 10.6035 1.59766C9.43164 1.59766 8.33008 1.82422 7.29883 2.27734C6.26758 2.71484 5.36133 3.32422 4.58008 4.10547C3.81445 4.87109 3.21289 5.76953 2.77539 6.80078C2.32227 7.83203 2.0957 8.93359 2.0957 10.1055C2.0957 11.2773 2.32227 12.3789 2.77539 13.4102C3.21289 14.4414 3.81445 15.3477 4.58008 16.1289C5.36133 16.8945 6.26758 17.4961 7.29883 17.9336C8.33008 18.3867 9.43164 18.6133 10.6035 18.6133Z" fill="#949494"/>
</svg>
