<svg width="18" height="22" viewBox="0 0 18 22" fill="none" xmlns="http://www.w3.org/2000/svg">
<path d="M4.99219 0.757812C4.99219 0.539062 5.0625 0.359375 5.20312 0.21875C5.35938 0.078125 5.53906 0.0078125 5.74219 0.0078125H12.2578C12.4609 0.0078125 12.6328 0.078125 12.7734 0.21875C12.9297 0.359375 13.0078 0.539062 13.0078 0.757812C13.0078 0.960937 12.9297 1.14063 12.7734 1.29688C12.6328 1.4375 12.4609 1.50781 12.2578 1.50781H5.74219C5.53906 1.50781 5.35938 1.4375 5.20312 1.29688C5.0625 1.14063 4.99219 0.960937 4.99219 0.757812ZM7.24219 8C7.03906 8 6.85938 8.07812 6.70312 8.23438C6.5625 8.375 6.49219 8.54688 6.49219 8.75V15.2422C6.49219 15.4609 6.5625 15.6406 6.70312 15.7812C6.85938 15.9219 7.03906 15.9922 7.24219 15.9922C7.46094 15.9922 7.64062 15.9219 7.78125 15.7812C7.92188 15.6406 7.99219 15.4609 7.99219 15.2422V8.75C7.99219 8.54688 7.92188 8.375 7.78125 8.23438C7.64062 8.07812 7.46094 8 7.24219 8ZM10.0078 8.75C10.0078 8.54688 10.0781 8.375 10.2188 8.23438C10.3594 8.07812 10.5391 8 10.7578 8C10.9609 8 11.1328 8.07812 11.2734 8.23438C11.4297 8.375 11.5078 8.54688 11.5078 8.75V15.2422C11.5078 15.4609 11.4297 15.6406 11.2734 15.7812C11.1328 15.9219 10.9609 15.9922 10.7578 15.9922C10.5391 15.9922 10.3594 15.9219 10.2188 15.7812C10.0781 15.6406 10.0078 15.4609 10.0078 15.2422V8.75ZM0.75 3.00781H17.25C17.4531 3.00781 17.625 3.07812 17.7656 3.21875C17.9219 3.35938 18 3.53906 18 3.75781C18 3.96094 17.9219 4.14063 17.7656 4.29688C17.625 4.4375 17.4531 4.50781 17.25 4.50781H16.0078V17C16.0078 18.1094 15.6172 19.0547 14.8359 19.8359C14.0547 20.6172 13.1094 21.0078 12 21.0078H6C4.89062 21.0078 3.94531 20.6172 3.16406 19.8359C2.38281 19.0547 1.99219 18.1094 1.99219 17V4.50781H0.75C0.546875 4.50781 0.367188 4.4375 0.210938 4.29688C0.0703125 4.14063 0 3.96094 0 3.75781C0 3.53906 0.0703125 3.35938 0.210938 3.21875C0.367188 3.07812 0.546875 3.00781 0.75 3.00781ZM12 19.5078C12.6875 19.5078 13.2734 19.2656 13.7578 18.7812C14.2578 18.2812 14.5078 17.6875 14.5078 17V4.50781H3.49219V17C3.49219 17.6875 3.73438 18.2812 4.21875 18.7812C4.71875 19.2656 5.3125 19.5078 6 19.5078H12Z" fill="#808080"/>
</svg>
