<svg width="23" height="23" viewBox="0 0 23 23" fill="none" xmlns="http://www.w3.org/2000/svg">
<path opacity="0.4" d="M5.49219 1.25781C5.49219 1.03906 5.42188 0.859375 5.28125 0.71875C5.14062 0.578125 4.96094 0.507812 4.74219 0.507812C4.53906 0.507812 4.35938 0.578125 4.20312 0.71875C4.0625 0.859375 3.99219 1.03906 3.99219 1.25781V4H1.50781C1.28906 4 1.10938 4.07813 0.96875 4.23438C0.828125 4.375 0.757812 4.54688 0.757812 4.75C0.757812 4.95312 0.828125 5.13281 0.96875 5.28906C1.10938 5.42969 1.28906 5.5 1.50781 5.5H14.75C15.6406 5.5 16.4062 5.82031 17.0469 6.46094C17.6875 7.08594 18.0078 7.85156 18.0078 8.75781V15.7422C18.0078 15.9609 18.0781 16.1406 18.2188 16.2812C18.3594 16.4219 18.5391 16.4922 18.7578 16.4922C18.9609 16.4922 19.1328 16.4219 19.2734 16.2812C19.4297 16.1406 19.5078 15.9609 19.5078 15.7422V8.75781C19.5078 8.10156 19.3828 7.48437 19.1328 6.90625C18.8828 6.32813 18.5391 5.82812 18.1016 5.40625C17.6797 4.96875 17.1797 4.625 16.6016 4.375C16.0234 4.125 15.4062 4 14.75 4H5.49219V1.25781ZM5.49219 7.49219C5.49219 7.28906 5.42188 7.11719 5.28125 6.97656C5.14062 6.82031 4.96094 6.74219 4.74219 6.74219C4.53906 6.74219 4.35938 6.82031 4.20312 6.97656C4.0625 7.11719 3.99219 7.28906 3.99219 7.49219V14.5C3.99219 15.1562 4.11719 15.7734 4.36719 16.3516C4.61719 16.9297 4.95312 17.4375 5.375 17.875C5.8125 18.2969 6.32031 18.6328 6.89844 18.8828C7.47656 19.1328 8.09375 19.2578 8.75 19.2578H18.0078V21.7422C18.0078 21.9609 18.0781 22.1406 18.2188 22.2812C18.3594 22.4219 18.5391 22.4922 18.7578 22.4922C18.9609 22.4922 19.1328 22.4219 19.2734 22.2812C19.4297 22.1406 19.5078 21.9609 19.5078 21.7422V19.2578H21.9922C22.2109 19.2578 22.3906 19.1875 22.5312 19.0469C22.6719 18.8906 22.7422 18.7109 22.7422 18.5078C22.7422 18.2891 22.6719 18.1094 22.5312 17.9688C22.3906 17.8281 22.2109 17.7578 21.9922 17.7578H8.75C7.85938 17.7578 7.09375 17.4375 6.45312 16.7969C5.8125 16.1562 5.49219 15.3906 5.49219 14.5V7.49219Z" fill="#949494"/>
</svg>
