<svg width="25" height="25" viewBox="0 0 25 25" fill="none" xmlns="http://www.w3.org/2000/svg">
<g clip-path="url(#clip0_691_11417)">
<path d="M6.49219 2.25781C6.49219 2.03906 6.42188 1.85938 6.28125 1.71875C6.14062 1.57812 5.96094 1.50781 5.74219 1.50781C5.53906 1.50781 5.35938 1.57812 5.20312 1.71875C5.0625 1.85938 4.99219 2.03906 4.99219 2.25781V5H2.50781C2.28906 5 2.10938 5.07813 1.96875 5.23438C1.82812 5.375 1.75781 5.54688 1.75781 5.75C1.75781 5.95312 1.82812 6.13281 1.96875 6.28906C2.10938 6.42969 2.28906 6.5 2.50781 6.5H15.75C16.6406 6.5 17.4062 6.82031 18.0469 7.46094C18.6875 8.08594 19.0078 8.85156 19.0078 9.75781V16.7422C19.0078 16.9609 19.0781 17.1406 19.2188 17.2812C19.3594 17.4219 19.5391 17.4922 19.7578 17.4922C19.9609 17.4922 20.1328 17.4219 20.2734 17.2812C20.4297 17.1406 20.5078 16.9609 20.5078 16.7422V9.75781C20.5078 9.10156 20.3828 8.48438 20.1328 7.90625C19.8828 7.32813 19.5391 6.82812 19.1016 6.40625C18.6797 5.96875 18.1797 5.625 17.6016 5.375C17.0234 5.125 16.4062 5 15.75 5H6.49219V2.25781ZM6.49219 8.49219C6.49219 8.28906 6.42188 8.11719 6.28125 7.97656C6.14062 7.82031 5.96094 7.74219 5.74219 7.74219C5.53906 7.74219 5.35938 7.82031 5.20312 7.97656C5.0625 8.11719 4.99219 8.28906 4.99219 8.49219V15.5C4.99219 16.1562 5.11719 16.7734 5.36719 17.3516C5.61719 17.9297 5.95312 18.4375 6.375 18.875C6.8125 19.2969 7.32031 19.6328 7.89844 19.8828C8.47656 20.1328 9.09375 20.2578 9.75 20.2578H19.0078V22.7422C19.0078 22.9609 19.0781 23.1406 19.2188 23.2812C19.3594 23.4219 19.5391 23.4922 19.7578 23.4922C19.9609 23.4922 20.1328 23.4219 20.2734 23.2812C20.4297 23.1406 20.5078 22.9609 20.5078 22.7422V20.2578H22.9922C23.2109 20.2578 23.3906 20.1875 23.5312 20.0469C23.6719 19.8906 23.7422 19.7109 23.7422 19.5078C23.7422 19.2891 23.6719 19.1094 23.5312 18.9688C23.3906 18.8281 23.2109 18.7578 22.9922 18.7578H9.75C8.85938 18.7578 8.09375 18.4375 7.45312 17.7969C6.8125 17.1562 6.49219 16.3906 6.49219 15.5V8.49219Z" fill="#5A00EE"/>
</g>
<defs>
<clipPath id="clip0_691_11417">
<rect width="24" height="24" fill="white" transform="translate(0.75 0.5)"/>
</clipPath>
</defs>
</svg>
