<svg width="22" height="22" viewBox="0 0 22 22" fill="none" xmlns="http://www.w3.org/2000/svg">
<path d="M4.74219 0.757812C4.74219 0.539062 4.67188 0.359375 4.53125 0.21875C4.39062 0.078125 4.21094 0.0078125 3.99219 0.0078125C3.78906 0.0078125 3.60938 0.078125 3.45312 0.21875C3.3125 0.359375 3.24219 0.539062 3.24219 0.757812V3.5H0.757812C0.539062 3.5 0.359375 3.57813 0.21875 3.73438C0.078125 3.875 0.0078125 4.04688 0.0078125 4.25C0.0078125 4.45312 0.078125 4.63281 0.21875 4.78906C0.359375 4.92969 0.539062 5 0.757812 5H14C14.8906 5 15.6562 5.32031 16.2969 5.96094C16.9375 6.58594 17.2578 7.35156 17.2578 8.25781V15.2422C17.2578 15.4609 17.3281 15.6406 17.4688 15.7812C17.6094 15.9219 17.7891 15.9922 18.0078 15.9922C18.2109 15.9922 18.3828 15.9219 18.5234 15.7812C18.6797 15.6406 18.7578 15.4609 18.7578 15.2422V8.25781C18.7578 7.60156 18.6328 6.98437 18.3828 6.40625C18.1328 5.82813 17.7891 5.32812 17.3516 4.90625C16.9297 4.46875 16.4297 4.125 15.8516 3.875C15.2734 3.625 14.6562 3.5 14 3.5H4.74219V0.757812ZM4.74219 6.99219C4.74219 6.78906 4.67188 6.61719 4.53125 6.47656C4.39062 6.32031 4.21094 6.24219 3.99219 6.24219C3.78906 6.24219 3.60938 6.32031 3.45312 6.47656C3.3125 6.61719 3.24219 6.78906 3.24219 6.99219V14C3.24219 14.6562 3.36719 15.2734 3.61719 15.8516C3.86719 16.4297 4.20312 16.9375 4.625 17.375C5.0625 17.7969 5.57031 18.1328 6.14844 18.3828C6.72656 18.6328 7.34375 18.7578 8 18.7578H17.2578V21.2422C17.2578 21.4609 17.3281 21.6406 17.4688 21.7812C17.6094 21.9219 17.7891 21.9922 18.0078 21.9922C18.2109 21.9922 18.3828 21.9219 18.5234 21.7812C18.6797 21.6406 18.7578 21.4609 18.7578 21.2422V18.7578H21.2422C21.4609 18.7578 21.6406 18.6875 21.7812 18.5469C21.9219 18.3906 21.9922 18.2109 21.9922 18.0078C21.9922 17.7891 21.9219 17.6094 21.7812 17.4688C21.6406 17.3281 21.4609 17.2578 21.2422 17.2578H8C7.10938 17.2578 6.34375 16.9375 5.70312 16.2969C5.0625 15.6562 4.74219 14.8906 4.74219 14V6.99219Z" fill="#C209C1"/>
</svg>
