<svg width="22" height="17" viewBox="0 0 22 17" fill="none" xmlns="http://www.w3.org/2000/svg">
<path d="M6.38281 1.24219C6.52344 1.38281 6.58594 1.5625 6.57031 1.78125C6.57031 1.98437 6.5 2.15625 6.35938 2.29688L3.73438 4.78125H14.2812C15.2031 4.78125 16.0703 4.96094 16.8828 5.32031C17.7109 5.67969 18.4297 6.16406 19.0391 6.77344C19.6484 7.38281 20.125 8.09375 20.4688 8.90625C20.8281 9.73438 21.0078 10.6094 21.0078 11.5312V16.2422C21.0078 16.4609 20.9297 16.6406 20.7734 16.7812C20.6328 16.9219 20.4609 16.9922 20.2578 16.9922C20.0547 16.9922 19.875 16.9219 19.7188 16.7812C19.5781 16.6406 19.5078 16.4609 19.5078 16.2422V11.5312C19.5078 10.8125 19.3672 10.1328 19.0859 9.49219C18.8203 8.85156 18.4453 8.29688 17.9609 7.82812C17.4922 7.35938 16.9453 6.98438 16.3203 6.70312C15.6797 6.42188 15 6.28125 14.2812 6.28125H3.73438L6.35938 8.78906C6.5 8.92969 6.57031 9.10938 6.57031 9.32812C6.58594 9.53125 6.52344 9.70312 6.38281 9.84375C6.24219 10 6.07031 10.0859 5.86719 10.1016C5.66406 10.1016 5.48438 10.0234 5.32812 9.86719L1.15625 5.90625C1.04688 5.8125 0.992188 5.69531 0.992188 5.55469C0.992188 5.39844 1.04688 5.27344 1.15625 5.17969L5.32812 1.19531C5.48438 1.05469 5.66406 0.992188 5.86719 1.00781C6.07031 1.00781 6.24219 1.08594 6.38281 1.24219Z" fill="#808080"/>
</svg>
