<svg width="14" height="25" viewBox="0 0 14 25" fill="none" xmlns="http://www.w3.org/2000/svg">
<path d="M6.79488 2.49589C6.16512 2.50694 5.56297 2.634 4.98845 2.87707C4.42497 3.13118 3.92779 3.48474 3.49689 3.93773C3.07705 4.37967 2.74007 4.89342 2.48595 5.479C2.24288 6.07562 2.12135 6.71643 2.12135 7.40144L2.13792 9.34046C2.13792 9.56143 2.06058 9.74926 1.9059 9.90394C1.76227 10.0476 1.57997 10.1194 1.359 10.1194C1.14908 10.1083 0.972301 10.031 0.82867 9.88737C0.673991 9.73269 0.591127 9.55039 0.580078 9.34046L0.596651 7.40144C0.596651 6.51756 0.756855 5.68339 1.07726 4.89895C1.39767 4.1145 1.83409 3.43502 2.38651 2.86049C2.94999 2.27492 3.6129 1.81088 4.37525 1.46838C5.12655 1.13692 5.9331 0.971191 6.79488 0.971191C7.65667 0.971191 8.46321 1.13692 9.21451 1.46838C9.97686 1.81088 10.6398 2.27492 11.2033 2.86049C11.7557 3.43502 12.1921 4.1145 12.5125 4.89895C12.8329 5.68339 12.9931 6.51756 12.9931 7.40144L13.0097 9.34046C12.9986 9.55039 12.9158 9.73269 12.7611 9.88737C12.6175 10.031 12.4407 10.1083 12.2308 10.1194C12.0098 10.1194 11.8275 10.0476 11.6839 9.90394C11.5292 9.74926 11.4518 9.56143 11.4518 9.34046L11.4684 7.40144C11.4684 6.71643 11.3469 6.07562 11.1038 5.479C10.8497 4.89342 10.5127 4.37967 10.0929 3.93773C9.66198 3.48474 9.1648 3.13118 8.60132 2.87707C8.0268 2.634 7.42465 2.50694 6.79488 2.49589ZM1.359 15.0912C1.57997 15.0912 1.7678 15.1686 1.92248 15.3232C2.06611 15.4669 2.13792 15.6492 2.13792 15.8702L2.12135 17.8092C2.12135 18.4942 2.24288 19.135 2.48595 19.7316C2.74007 20.3172 3.08257 20.8365 3.51347 21.2895C3.93331 21.7314 4.42497 22.0794 4.98845 22.3335C5.56297 22.5766 6.16512 22.7037 6.79488 22.7147C7.42465 22.7037 8.0268 22.5766 8.60132 22.3335C9.1648 22.0794 9.65646 21.7314 10.0763 21.2895C10.5072 20.8365 10.8497 20.3172 11.1038 19.7316C11.3469 19.135 11.4684 18.4942 11.4684 17.8092L11.4518 15.8702C11.4518 15.6492 11.5237 15.4669 11.6673 15.3232C11.822 15.1686 12.0098 15.0912 12.2308 15.0912C12.4407 15.1023 12.623 15.1851 12.7777 15.3398C12.9213 15.4835 12.9986 15.6602 13.0097 15.8702L12.9931 17.8092C12.9931 18.6931 12.8329 19.5272 12.5125 20.3117C12.1921 21.0961 11.7502 21.7811 11.1867 22.3667C10.6343 22.9412 9.97686 23.3997 9.21451 23.7422C8.46321 24.0737 7.65667 24.2394 6.79488 24.2394C5.9331 24.2394 5.12655 24.0737 4.37525 23.7422C3.6129 23.3997 2.95551 22.9412 2.40309 22.3667C1.83961 21.7811 1.39767 21.0961 1.07726 20.3117C0.756855 19.5272 0.596651 18.6931 0.596651 17.8092L0.580078 15.8702C0.591127 15.6602 0.668466 15.4835 0.812098 15.3398C0.966777 15.1851 1.14908 15.1023 1.359 15.0912Z" fill="#5F5F5F"/>
</svg>
