<svg width="18" height="18" viewBox="0 0 18 18" fill="none" xmlns="http://www.w3.org/2000/svg">
<path d="M16.9922 0.257812C17.2109 0.257812 17.3906 0.328125 17.5312 0.46875C17.6719 0.609375 17.7422 0.789062 17.7422 1.00781V6.75H16.5234C16.5078 6.75 16.5 6.75 16.5 6.75C16.5 6.75 16.4922 6.75 16.4766 6.75H12C11.7969 6.75 11.6172 6.67969 11.4609 6.53906C11.3203 6.38281 11.25 6.20312 11.25 6C11.25 5.79688 11.3203 5.625 11.4609 5.48438C11.6172 5.32812 11.7969 5.25 12 5.25H15.2578C15.0078 4.85938 14.6953 4.46094 14.3203 4.05469C13.9297 3.63281 13.4688 3.25781 12.9375 2.92969C12.4219 2.58594 11.8359 2.30469 11.1797 2.08594C10.5234 1.86719 9.79688 1.75781 9 1.75781C8 1.75781 7.11719 1.92188 6.35156 2.25C5.57031 2.57812 4.89844 2.97656 4.33594 3.44531C3.77344 3.91406 3.3125 4.41406 2.95312 4.94531C2.59375 5.46094 2.34375 5.90625 2.20312 6.28125C2.125 6.46875 1.98438 6.60938 1.78125 6.70312C1.59375 6.78125 1.40625 6.78125 1.21875 6.70312C1.03125 6.625 0.890625 6.49219 0.796875 6.30469C0.71875 6.10156 0.71875 5.90625 0.796875 5.71875C0.984375 5.26562 1.28906 4.72656 1.71094 4.10156C2.13281 3.47656 2.67969 2.88281 3.35156 2.32031C4.03906 1.74219 4.85156 1.25 5.78906 0.84375C6.72656 0.453125 7.79688 0.257812 9 0.257812C9.89062 0.257812 10.7109 0.367187 11.4609 0.585938C12.2109 0.820312 12.8828 1.11719 13.4766 1.47656C14.0859 1.83594 14.6172 2.24219 15.0703 2.69531C15.5391 3.14844 15.9297 3.60156 16.2422 4.05469V1.00781C16.2422 0.789062 16.3125 0.609375 16.4531 0.46875C16.6094 0.328125 16.7891 0.257812 16.9922 0.257812ZM1.47656 11.25H0.257812V16.9922C0.257812 17.2109 0.328125 17.3906 0.46875 17.5312C0.609375 17.6719 0.789062 17.7422 1.00781 17.7422C1.21094 17.7422 1.38281 17.6719 1.52344 17.5312C1.67969 17.3906 1.75781 17.2109 1.75781 16.9922V13.9453C2.07031 14.3984 2.46094 14.8516 2.92969 15.3047C3.38281 15.7578 3.90625 16.1641 4.5 16.5234C5.10938 16.8828 5.78906 17.1797 6.53906 17.4141C7.28906 17.6328 8.10938 17.7422 9 17.7422C10.2031 17.7422 11.2734 17.5469 12.2109 17.1562C13.1484 16.75 13.9531 16.2656 14.625 15.7031C15.3125 15.125 15.8672 14.5234 16.2891 13.8984C16.7109 13.2734 17.0156 12.7344 17.2031 12.2812C17.2812 12.0938 17.2734 11.9062 17.1797 11.7188C17.1016 11.5156 16.9688 11.375 16.7812 11.2969C16.5938 11.2188 16.3984 11.2266 16.1953 11.3203C16.0078 11.3984 15.875 11.5312 15.7969 11.7188C15.6562 12.0938 15.4062 12.5391 15.0469 13.0547C14.6875 13.5859 14.2266 14.0859 13.6641 14.5547C13.1016 15.0234 12.4297 15.4219 11.6484 15.75C10.8828 16.0781 10 16.2422 9 16.2422C8.20312 16.2422 7.47656 16.1328 6.82031 15.9141C6.16406 15.6953 5.57031 15.4219 5.03906 15.0938C4.52344 14.75 4.07031 14.3672 3.67969 13.9453C3.30469 13.5391 2.99219 13.1406 2.74219 12.75H6C6.20312 12.75 6.375 12.6797 6.51562 12.5391C6.67188 12.3828 6.75 12.2031 6.75 12C6.75 11.7969 6.67188 11.625 6.51562 11.4844C6.375 11.3281 6.20312 11.25 6 11.25H1.52344C1.50781 11.25 1.5 11.25 1.5 11.25C1.5 11.25 1.49219 11.25 1.47656 11.25Z" fill="#808080"/>
</svg>
