<svg width="22" height="17" viewBox="0 0 22 17" fill="none" xmlns="http://www.w3.org/2000/svg">
<path d="M15.6172 1.24219C15.4766 1.38281 15.4062 1.5625 15.4062 1.78125C15.4219 1.98437 15.5 2.15625 15.6406 2.29688L18.2656 4.78125H7.71875C6.79688 4.78125 5.92969 4.96094 5.11719 5.32031C4.28906 5.67969 3.57031 6.16406 2.96094 6.77344C2.35156 7.38281 1.875 8.09375 1.53125 8.90625C1.17188 9.73438 0.992188 10.6094 0.992188 11.5312V16.2422C0.992188 16.4609 1.0625 16.6406 1.20312 16.7812C1.35938 16.9219 1.53906 16.9922 1.74219 16.9922C1.94531 16.9922 2.11719 16.9219 2.25781 16.7812C2.41406 16.6406 2.49219 16.4609 2.49219 16.2422V11.5312C2.49219 10.8125 2.63281 10.1328 2.91406 9.49219C3.17969 8.85156 3.54688 8.29688 4.01562 7.82812C4.5 7.35938 5.05469 6.98438 5.67969 6.70312C6.32031 6.42188 7 6.28125 7.71875 6.28125H18.2656L15.6406 8.78906C15.5 8.92969 15.4219 9.10938 15.4062 9.32812C15.4062 9.53125 15.4766 9.70312 15.6172 9.84375C15.7578 10 15.9297 10.0859 16.1328 10.1016C16.3359 10.1016 16.5156 10.0234 16.6719 9.86719L20.8438 5.90625C20.9531 5.8125 21.0078 5.69531 21.0078 5.55469C21.0078 5.39844 20.9531 5.27344 20.8438 5.17969L16.6719 1.19531C16.5156 1.05469 16.3359 0.992188 16.1328 1.00781C15.9297 1.00781 15.7578 1.08594 15.6172 1.24219Z" fill="#808080"/>
</svg>
