<svg width="64" height="24" viewBox="0 0 64 24" fill="none" xmlns="http://www.w3.org/2000/svg">
<path d="M6.42552 17.182C8.23152 17.182 9.82752 16.258 10.6395 14.83L9.23952 14.032C8.73552 14.998 7.65752 15.614 6.42552 15.614C4.31152 15.614 2.91152 14.116 2.91152 12.1C2.91152 10.084 4.31152 8.586 6.42552 8.586C7.65752 8.586 8.72152 9.202 9.23952 10.168L10.6395 9.356C9.81352 7.928 8.21752 7.018 6.42552 7.018C3.44352 7.018 1.30152 9.258 1.30152 12.1C1.30152 14.942 3.44352 17.182 6.42552 17.182ZM15.1694 17.182C17.2274 17.182 18.8654 15.572 18.8654 13.5C18.8654 11.414 17.2274 9.818 15.1694 9.818C13.1254 9.818 11.4734 11.414 11.4734 13.5C11.4734 15.572 13.1254 17.182 15.1694 17.182ZM15.1694 15.712C13.9374 15.712 12.9854 14.774 12.9854 13.5C12.9854 12.226 13.9374 11.288 15.1694 11.288C16.4014 11.288 17.3534 12.226 17.3534 13.5C17.3534 14.774 16.4014 15.712 15.1694 15.712ZM20.2326 17H21.7446V6.78H20.2326V17ZM26.8042 17.182C28.8622 17.182 30.5002 15.572 30.5002 13.5C30.5002 11.414 28.8622 9.818 26.8042 9.818C24.7602 9.818 23.1082 11.414 23.1082 13.5C23.1082 15.572 24.7602 17.182 26.8042 17.182ZM26.8042 15.712C25.5722 15.712 24.6202 14.774 24.6202 13.5C24.6202 12.226 25.5722 11.288 26.8042 11.288C28.0362 11.288 28.9882 12.226 28.9882 13.5C28.9882 14.774 28.0362 15.712 26.8042 15.712ZM33.3794 11.176V10H31.8674V17H33.3794V13.472C33.3794 11.904 34.5414 11.442 35.5354 11.512V9.874C34.6534 9.874 33.7994 10.224 33.3794 11.176Z" fill="#222222"/>
<g clip-path="url(#clip0_308_13961)">
<path d="M49.3506 10.9688C49.1943 10.8281 49.0146 10.7578 48.8115 10.7578C48.6084 10.7578 48.4287 10.8281 48.2725 10.9688C48.1318 11.1094 48.0615 11.2891 48.0615 11.5078C48.0615 11.7109 48.1318 11.8828 48.2725 12.0234L51.2725 15.0234C51.4287 15.1797 51.6084 15.2578 51.8115 15.2578C52.0146 15.2578 52.1943 15.1797 52.3506 15.0234L55.3506 12.0234C55.4912 11.8828 55.5615 11.7109 55.5615 11.5078C55.5615 11.2891 55.4912 11.1094 55.3506 10.9688C55.1943 10.8281 55.0146 10.7578 54.8115 10.7578C54.6084 10.7578 54.4287 10.8281 54.2725 10.9688L51.8115 13.4297L49.3506 10.9688Z" fill="#C209C1"/>
</g>
<defs>
<clipPath id="clip0_308_13961">
<rect width="24" height="24" fill="white" transform="translate(39.8115)"/>
</clipPath>
</defs>
</svg>
