<svg width="81" height="24" viewBox="0 0 81 24" fill="none" xmlns="http://www.w3.org/2000/svg">
<path d="M6.42552 17.182C8.23152 17.182 9.82752 16.258 10.6395 14.83L9.23952 14.032C8.73552 14.998 7.65752 15.614 6.42552 15.614C4.31152 15.614 2.91152 14.116 2.91152 12.1C2.91152 10.084 4.31152 8.586 6.42552 8.586C7.65752 8.586 8.72152 9.202 9.23952 10.168L10.6395 9.356C9.81352 7.928 8.21752 7.018 6.42552 7.018C3.44352 7.018 1.30152 9.258 1.30152 12.1C1.30152 14.942 3.44352 17.182 6.42552 17.182ZM15.1694 17.182C17.2274 17.182 18.8654 15.572 18.8654 13.5C18.8654 11.414 17.2274 9.818 15.1694 9.818C13.1254 9.818 11.4734 11.414 11.4734 13.5C11.4734 15.572 13.1254 17.182 15.1694 17.182ZM15.1694 15.712C13.9374 15.712 12.9854 14.774 12.9854 13.5C12.9854 12.226 13.9374 11.288 15.1694 11.288C16.4014 11.288 17.3534 12.226 17.3534 13.5C17.3534 14.774 16.4014 15.712 15.1694 15.712ZM23.9146 9.818C22.9626 9.818 22.2066 10.168 21.7446 10.896V10H20.2326V17H21.7446V13.248C21.7446 11.82 22.5286 11.232 23.5226 11.232C24.4746 11.232 25.0906 11.792 25.0906 12.856V17H26.6026V12.702C26.6026 10.882 25.4826 9.818 23.9146 9.818ZM32.8673 10L30.9213 15.32L28.9613 10H27.3093L30.0393 17H31.7893L34.5193 10H32.8673ZM36.3933 14.144H41.9653C41.9933 13.948 42.0213 13.724 42.0213 13.514C42.0213 11.498 40.5933 9.818 38.5073 9.818C36.3093 9.818 34.8113 11.428 34.8113 13.5C34.8113 15.6 36.3093 17.182 38.6193 17.182C39.9913 17.182 41.0413 16.608 41.6853 15.656L40.4393 14.928C40.1033 15.418 39.4733 15.796 38.6333 15.796C37.5133 15.796 36.6313 15.236 36.3933 14.144ZM36.3793 12.912C36.5893 11.862 37.3593 11.19 38.4933 11.19C39.4033 11.19 40.2853 11.708 40.4953 12.912H36.3793ZM44.8637 11.176V10H43.3517V17H44.8637V13.472C44.8637 11.904 46.0257 11.442 47.0197 11.512V9.874C46.1377 9.874 45.2837 10.224 44.8637 11.176ZM52.2206 11.456V10H50.4846V8.04L48.9726 8.488V10H47.6846V11.456H48.9726V14.816C48.9726 16.636 49.8966 17.28 52.2206 17V15.642C51.0726 15.698 50.4846 15.712 50.4846 14.816V11.456H52.2206Z" fill="#222222"/>
<g clip-path="url(#clip0_308_13955)">
<path d="M66.3506 10.9688C66.1943 10.8281 66.0146 10.7578 65.8115 10.7578C65.6084 10.7578 65.4287 10.8281 65.2725 10.9688C65.1318 11.1094 65.0615 11.2891 65.0615 11.5078C65.0615 11.7109 65.1318 11.8828 65.2725 12.0234L68.2725 15.0234C68.4287 15.1797 68.6084 15.2578 68.8115 15.2578C69.0146 15.2578 69.1943 15.1797 69.3506 15.0234L72.3506 12.0234C72.4912 11.8828 72.5615 11.7109 72.5615 11.5078C72.5615 11.2891 72.4912 11.1094 72.3506 10.9688C72.1943 10.8281 72.0146 10.7578 71.8115 10.7578C71.6084 10.7578 71.4287 10.8281 71.2725 10.9688L68.8115 13.4297L66.3506 10.9688Z" fill="#C209C1"/>
</g>
<defs>
<clipPath id="clip0_308_13955">
<rect width="24" height="24" fill="white" transform="translate(56.8115)"/>
</clipPath>
</defs>
</svg>
