<svg width="74" height="24" viewBox="0 0 74 24" fill="none" xmlns="http://www.w3.org/2000/svg">
<path d="M5.64152 7.2H1.79152V17H5.64152C8.34352 17 10.3315 14.83 10.3315 12.1C10.3315 9.356 8.34352 7.2 5.64152 7.2ZM5.64152 15.46H3.40152V8.74H5.64152C7.50352 8.74 8.77752 10.154 8.77752 12.1C8.77752 14.032 7.50352 15.46 5.64152 15.46ZM12.8913 14.144H18.4633C18.4913 13.948 18.5193 13.724 18.5193 13.514C18.5193 11.498 17.0913 9.818 15.0053 9.818C12.8073 9.818 11.3093 11.428 11.3093 13.5C11.3093 15.6 12.8073 17.182 15.1173 17.182C16.4893 17.182 17.5393 16.608 18.1833 15.656L16.9373 14.928C16.6013 15.418 15.9713 15.796 15.1313 15.796C14.0113 15.796 13.1293 15.236 12.8913 14.144ZM12.8773 12.912C13.0873 11.862 13.8573 11.19 14.9913 11.19C15.9013 11.19 16.7833 11.708 16.9933 12.912H12.8773ZM20.9343 11.932C20.9343 11.428 21.4103 11.19 21.9563 11.19C22.5303 11.19 23.0203 11.442 23.2723 11.988L24.5463 11.274C24.0563 10.35 23.1043 9.818 21.9563 9.818C20.5283 9.818 19.3943 10.644 19.3943 11.96C19.3943 14.466 23.1603 13.766 23.1603 15.012C23.1603 15.572 22.6423 15.796 21.9703 15.796C21.2003 15.796 20.6403 15.418 20.4163 14.788L19.1143 15.544C19.5623 16.552 20.5703 17.182 21.9703 17.182C23.4823 17.182 24.7003 16.426 24.7003 15.026C24.7003 12.436 20.9343 13.206 20.9343 11.932ZM26.7034 8.95C27.2354 8.95 27.6694 8.502 27.6694 7.984C27.6694 7.452 27.2354 7.018 26.7034 7.018C26.1714 7.018 25.7374 7.452 25.7374 7.984C25.7374 8.502 26.1714 8.95 26.7034 8.95ZM25.9474 17H27.4594V10H25.9474V17ZM34.787 10V11.036C34.255 10.28 33.429 9.818 32.351 9.818C30.377 9.818 28.823 11.428 28.823 13.43C28.823 15.432 30.377 17.042 32.351 17.042C33.429 17.042 34.255 16.58 34.787 15.824V16.678C34.787 17.896 34.003 18.61 32.701 18.61C31.483 18.61 30.965 18.134 30.657 17.532L29.355 18.288C29.943 19.408 31.133 19.982 32.673 19.982C34.507 19.982 36.271 18.932 36.271 16.678V10H34.787ZM32.561 15.628C31.287 15.628 30.335 14.69 30.335 13.43C30.335 12.17 31.287 11.232 32.561 11.232C33.835 11.232 34.787 12.17 34.787 13.43C34.787 14.69 33.835 15.628 32.561 15.628ZM41.7154 9.818C40.7634 9.818 40.0074 10.168 39.5454 10.896V10H38.0334V17H39.5454V13.248C39.5454 11.82 40.3294 11.232 41.3234 11.232C42.2754 11.232 42.8914 11.792 42.8914 12.856V17H44.4034V12.702C44.4034 10.882 43.2834 9.818 41.7154 9.818Z" fill="#222222"/>
<g clip-path="url(#clip0_308_13960)">
<path d="M59.3506 10.9688C59.1943 10.8281 59.0146 10.7578 58.8115 10.7578C58.6084 10.7578 58.4287 10.8281 58.2725 10.9688C58.1318 11.1094 58.0615 11.2891 58.0615 11.5078C58.0615 11.7109 58.1318 11.8828 58.2725 12.0234L61.2725 15.0234C61.4287 15.1797 61.6084 15.2578 61.8115 15.2578C62.0146 15.2578 62.1943 15.1797 62.3506 15.0234L65.3506 12.0234C65.4912 11.8828 65.5615 11.7109 65.5615 11.5078C65.5615 11.2891 65.4912 11.1094 65.3506 10.9688C65.1943 10.8281 65.0146 10.7578 64.8115 10.7578C64.6084 10.7578 64.4287 10.8281 64.2725 10.9688L61.8115 13.4297L59.3506 10.9688Z" fill="#C209C1"/>
</g>
<defs>
<clipPath id="clip0_308_13960">
<rect width="24" height="24" fill="white" transform="translate(49.8115)"/>
</clipPath>
</defs>
</svg>
