<svg width="77" height="24" viewBox="0 0 77 24" fill="none" xmlns="http://www.w3.org/2000/svg">
<path d="M1.79152 7.2V17H3.40152V7.2H1.79152ZM12.9059 9.818C11.9679 9.818 11.2259 10.196 10.7639 10.924C10.3579 10.224 9.68588 9.818 8.77588 9.818C7.90788 9.818 7.22188 10.154 6.77388 10.84V10H5.26188V17H6.77388V13.08C6.77388 11.806 7.47388 11.232 8.32788 11.232C9.15388 11.232 9.64388 11.778 9.64388 12.758V17H11.1559V13.08C11.1559 11.806 11.7859 11.232 12.6819 11.232C13.5079 11.232 14.0399 11.778 14.0399 12.758V17H15.5519V12.66C15.5519 10.91 14.4879 9.818 12.9059 9.818ZM22.7141 10V10.994C22.1821 10.266 21.3561 9.818 20.2641 9.818C18.3601 9.818 16.7781 11.414 16.7781 13.5C16.7781 15.572 18.3601 17.182 20.2641 17.182C21.3561 17.182 22.1821 16.734 22.7141 15.992V17H24.2261V10H22.7141ZM20.5021 15.74C19.2421 15.74 18.2901 14.802 18.2901 13.5C18.2901 12.198 19.2421 11.26 20.5021 11.26C21.7621 11.26 22.7141 12.198 22.7141 13.5C22.7141 14.802 21.7621 15.74 20.5021 15.74ZM31.5604 10V11.036C31.0284 10.28 30.2024 9.818 29.1244 9.818C27.1504 9.818 25.5964 11.428 25.5964 13.43C25.5964 15.432 27.1504 17.042 29.1244 17.042C30.2024 17.042 31.0284 16.58 31.5604 15.824V16.678C31.5604 17.896 30.7764 18.61 29.4744 18.61C28.2564 18.61 27.7384 18.134 27.4304 17.532L26.1284 18.288C26.7164 19.408 27.9064 19.982 29.4464 19.982C31.2804 19.982 33.0444 18.932 33.0444 16.678V10H31.5604ZM29.3344 15.628C28.0604 15.628 27.1084 14.69 27.1084 13.43C27.1084 12.17 28.0604 11.232 29.3344 11.232C30.6084 11.232 31.5604 12.17 31.5604 13.43C31.5604 14.69 30.6084 15.628 29.3344 15.628ZM35.9968 14.144H41.5688C41.5968 13.948 41.6248 13.724 41.6248 13.514C41.6248 11.498 40.1968 9.818 38.1108 9.818C35.9128 9.818 34.4148 11.428 34.4148 13.5C34.4148 15.6 35.9128 17.182 38.2228 17.182C39.5948 17.182 40.6448 16.608 41.2888 15.656L40.0428 14.928C39.7068 15.418 39.0768 15.796 38.2368 15.796C37.1168 15.796 36.2348 15.236 35.9968 14.144ZM35.9828 12.912C36.1928 11.862 36.9628 11.19 38.0968 11.19C39.0068 11.19 39.8888 11.708 40.0988 12.912H35.9828ZM44.0398 11.932C44.0398 11.428 44.5158 11.19 45.0618 11.19C45.6358 11.19 46.1258 11.442 46.3778 11.988L47.6518 11.274C47.1618 10.35 46.2098 9.818 45.0618 9.818C43.6338 9.818 42.4998 10.644 42.4998 11.96C42.4998 14.466 46.2658 13.766 46.2658 15.012C46.2658 15.572 45.7478 15.796 45.0758 15.796C44.3058 15.796 43.7458 15.418 43.5218 14.788L42.2198 15.544C42.6678 16.552 43.6758 17.182 45.0758 17.182C46.5878 17.182 47.8058 16.426 47.8058 15.026C47.8058 12.436 44.0398 13.206 44.0398 11.932Z" fill="#222222"/>
<g clip-path="url(#clip0_308_13956)">
<path d="M62.3506 10.9688C62.1943 10.8281 62.0146 10.7578 61.8115 10.7578C61.6084 10.7578 61.4287 10.8281 61.2725 10.9688C61.1318 11.1094 61.0615 11.2891 61.0615 11.5078C61.0615 11.7109 61.1318 11.8828 61.2725 12.0234L64.2725 15.0234C64.4287 15.1797 64.6084 15.2578 64.8115 15.2578C65.0146 15.2578 65.1943 15.1797 65.3506 15.0234L68.3506 12.0234C68.4912 11.8828 68.5615 11.7109 68.5615 11.5078C68.5615 11.2891 68.4912 11.1094 68.3506 10.9688C68.1943 10.8281 68.0146 10.7578 67.8115 10.7578C67.6084 10.7578 67.4287 10.8281 67.2725 10.9688L64.8115 13.4297L62.3506 10.9688Z" fill="#C209C1"/>
</g>
<defs>
<clipPath id="clip0_308_13956">
<rect width="24" height="24" fill="white" transform="translate(52.8115)"/>
</clipPath>
</defs>
</svg>
