<svg width="55" height="24" viewBox="0 0 55 24" fill="none" xmlns="http://www.w3.org/2000/svg">
<path d="M5.40352 7.2H1.79152V17H3.40152V13.64H5.40352C7.25152 13.64 8.65152 12.226 8.65152 10.42C8.65152 8.6 7.25152 7.2 5.40352 7.2ZM5.40352 12.128H3.40152V8.712H5.40352C6.35552 8.712 7.04152 9.426 7.04152 10.42C7.04152 11.4 6.35552 12.128 5.40352 12.128ZM13.8993 7.2H10.0493V17H13.8993C16.6013 17 18.5893 14.83 18.5893 12.1C18.5893 9.356 16.6013 7.2 13.8993 7.2ZM13.8993 15.46H11.6593V8.74H13.8993C15.7613 8.74 17.0353 10.154 17.0353 12.1C17.0353 14.032 15.7613 15.46 13.8993 15.46ZM25.7971 8.74V7.2H20.0571V17H21.6671V13.024H25.6571V11.484H21.6671V8.74H25.7971Z" fill="#222222"/>
<g clip-path="url(#clip0_308_13957)">
<path d="M40.3506 10.9688C40.1943 10.8281 40.0146 10.7578 39.8115 10.7578C39.6084 10.7578 39.4287 10.8281 39.2725 10.9688C39.1318 11.1094 39.0615 11.2891 39.0615 11.5078C39.0615 11.7109 39.1318 11.8828 39.2725 12.0234L42.2725 15.0234C42.4287 15.1797 42.6084 15.2578 42.8115 15.2578C43.0146 15.2578 43.1943 15.1797 43.3506 15.0234L46.3506 12.0234C46.4912 11.8828 46.5615 11.7109 46.5615 11.5078C46.5615 11.2891 46.4912 11.1094 46.3506 10.9688C46.1943 10.8281 46.0146 10.7578 45.8115 10.7578C45.6084 10.7578 45.4287 10.8281 45.2725 10.9688L42.8115 13.4297L40.3506 10.9688Z" fill="#C209C1"/>
</g>
<defs>
<clipPath id="clip0_308_13957">
<rect width="24" height="24" fill="white" transform="translate(30.8115)"/>
</clipPath>
</defs>
</svg>
