<svg width="176" height="42" viewBox="0 0 176 42" fill="none" xmlns="http://www.w3.org/2000/svg">
<path d="M47.5222 23.9822L46.0966 22.4865C45.9955 22.3811 45.8373 22.3606 45.7103 22.4351C43.8181 23.5607 41.7262 24.1235 39.4322 24.1235C36.0339 24.1235 33.1436 22.9568 30.7666 20.6182C28.3871 18.2822 27.1973 15.4296 27.1973 12.0605C27.1973 8.69137 28.3871 5.8388 30.7666 3.50277C33.1436 1.16931 36.0339 1.52588e-05 39.4322 1.52588e-05C42.8305 1.52588e-05 45.7492 1.1616 48.1158 3.48735C50.4824 5.8131 51.6671 8.67081 51.6671 12.0631C51.6671 15.1341 50.6769 17.7836 48.6965 20.0091C48.5902 20.1274 48.5902 20.3073 48.6965 20.4229L50.0185 21.8363C50.1377 21.9648 50.1273 22.1678 49.9925 22.2809L47.9473 24.0053C47.8203 24.1107 47.6337 24.1004 47.5196 23.9822H47.5222ZM39.4322 20.8932C40.8941 20.8932 42.2265 20.5771 43.4266 19.9475C43.6081 19.8524 43.6548 19.6108 43.5122 19.4618L42.0995 17.9609C41.9802 17.8325 41.9906 17.632 42.1228 17.5189L44.1654 15.7663C44.2924 15.6583 44.4842 15.6686 44.5983 15.792L46.0551 17.3673C46.1821 17.5061 46.4076 17.5009 46.5243 17.3545C47.7322 15.8434 48.3362 14.0804 48.3362 12.0682C48.3362 9.59597 47.4808 7.50922 45.7699 5.80025C44.0591 4.09384 41.9465 3.23807 39.4322 3.23807C36.9178 3.23807 34.8311 4.09127 33.1099 5.80025C31.3888 7.50665 30.5282 9.59597 30.5282 12.0682C30.5282 14.5404 31.3888 16.6272 33.1099 18.3361C34.8311 20.0426 36.9385 20.8958 39.4322 20.8958V20.8932Z" fill="black"/>
<path d="M67.8443 15.8715C67.8443 18.6136 67.1652 20.6721 65.8043 22.0547C64.446 23.4373 62.6315 24.126 60.366 24.126C58.1005 24.126 56.2886 23.4347 54.9277 22.0547C53.5694 20.6721 52.8877 18.6136 52.8877 15.8715V7.31638C52.8877 7.14677 53.0277 7.008 53.1988 7.008H55.9075C56.0786 7.008 56.2186 7.14677 56.2186 7.31638V15.8715C56.2186 19.2406 57.6002 20.9265 60.366 20.9265C63.1318 20.9265 64.5134 19.2406 64.5134 15.8715V7.31638C64.5134 7.14677 64.6534 7.008 64.8245 7.008H67.5333C67.7044 7.008 67.8443 7.14677 67.8443 7.31638V15.8715Z" fill="black"/>
<path d="M71.6157 4.68482C71.0273 4.68482 70.54 4.48951 70.1537 4.09631C69.7675 3.70312 69.5757 3.22512 69.5757 2.66489C69.5757 2.10465 69.7675 1.62665 70.1537 1.23346C70.54 0.84027 71.0247 0.644958 71.6157 0.644958C72.2067 0.644958 72.6577 0.84284 73.044 1.23346C73.4302 1.62665 73.622 2.10465 73.622 2.66489C73.622 3.22512 73.4302 3.70312 73.044 4.09631C72.6577 4.48951 72.1834 4.68482 71.6157 4.68482ZM69.9515 23.5503V7.31638C69.9515 7.14677 70.0915 7.00799 70.2626 7.00799H72.9714C73.1425 7.00799 73.2824 7.14677 73.2824 7.31638V23.5478C73.2824 23.7174 73.1425 23.8562 72.9714 23.8562H70.2626C70.0915 23.8562 69.9515 23.7174 69.9515 23.5478V23.5503Z" fill="black"/>
<path d="M90.4816 18.1305C90.4842 17.9583 90.3442 17.817 90.1706 17.817H87.5655C87.4566 17.817 87.3607 17.8632 87.2907 17.9403C87.2622 17.9712 87.2363 18.0097 87.2207 18.0508C86.5312 19.8086 85.0563 20.8186 83.1796 20.8186C81.7798 20.8186 80.5175 20.2763 79.6206 19.2895C78.7263 18.3052 78.2338 16.9252 78.2338 15.3987C78.2338 13.8722 78.7263 12.4665 79.6206 11.4796C80.5149 10.4928 81.7798 9.94797 83.1796 9.94797C85.0848 9.94797 86.5701 10.9682 87.2544 12.744C87.3089 12.8879 87.4462 12.9804 87.5992 12.9804H90.1991C90.3702 12.9804 90.5101 12.8417 90.5101 12.672V12.5847C90.5101 12.5847 90.5101 12.5641 90.5101 12.5538C90.492 12.3174 90.4479 12.0733 90.3805 11.8266C90.3702 11.7803 90.3442 11.7032 90.3442 11.7032C89.9917 10.5416 89.2374 9.64473 89.2063 9.60618L89.2011 9.60104C87.8143 7.82011 85.6758 6.84098 83.1822 6.84098C80.6885 6.84098 78.6356 7.74815 77.1088 9.39545C75.6494 10.9708 74.8433 13.1012 74.8433 15.3987C74.8433 17.6962 75.639 19.7932 77.0829 21.3608C78.6278 23.0364 80.7352 23.923 83.1796 23.923C84.2216 23.923 85.1703 23.7688 86.018 23.4681C87.9828 22.6946 89.5381 21.3968 90.3468 18.9683C90.4168 18.7164 90.4583 18.4671 90.4764 18.2256C90.4764 18.2024 90.479 18.169 90.479 18.1279L90.4816 18.1305Z" fill="black"/>
<path d="M91.9253 23.548V0.578322C91.9253 0.408709 92.0653 0.269936 92.2363 0.269936H94.9451C95.1162 0.269936 95.2562 0.408709 95.2562 0.578322V12.6799C95.2562 12.9523 95.588 13.0911 95.7824 12.9009L101.791 7.09555C101.848 7.03901 101.926 7.00817 102.009 7.00817H105.378C105.656 7.00817 105.793 7.33969 105.599 7.535L99.795 13.2581C99.6862 13.3661 99.6732 13.5357 99.7639 13.6565L106.895 23.3655C107.045 23.5685 106.897 23.8538 106.643 23.8538H103.707C103.608 23.8538 103.515 23.8075 103.458 23.7304L97.5425 15.8152C97.431 15.6661 97.2107 15.6481 97.0759 15.7766L95.3521 17.4291C95.2925 17.4882 95.2562 17.5678 95.2562 17.6501V23.5454C95.2562 23.715 95.1162 23.8538 94.9451 23.8538H92.2363C92.0653 23.8538 91.9253 23.715 91.9253 23.5454V23.548Z" fill="black"/>
<path d="M119.013 18.4799H116.325C116.193 18.4799 116.073 18.5622 116.032 18.6855C115.687 19.7289 114.954 20.4767 113.445 20.4767C111.936 20.4767 110.734 19.2663 110.734 17.7963V11.3151V10.1895C110.734 10.1047 110.804 10.0353 110.889 10.0353H117.937C118.108 10.0353 118.248 9.89652 118.248 9.72691V7.25725C118.248 7.08764 118.108 6.94886 117.937 6.94886H110.889C110.804 6.94886 110.734 6.87948 110.734 6.79467V2.89615C110.734 2.72654 110.594 2.58777 110.423 2.58777H107.563C107.392 2.58777 107.252 2.72654 107.252 2.89615V7.02596V17.7501C107.252 21.1012 109.94 23.9127 113.321 23.9435C115.682 23.9641 117.777 22.6689 118.816 20.6746C119.117 20.0964 119.283 19.4616 119.324 18.814C119.334 18.6367 119.194 18.4825 119.013 18.4825V18.4799Z" fill="black"/>
<path d="M122.326 9.28254C124.037 7.58641 126.103 6.73835 128.529 6.73835C130.955 6.73835 133.021 7.58641 134.732 9.28254C136.443 10.9787 137.298 13.0294 137.298 15.4323C137.298 17.8351 136.443 19.8859 134.732 21.582C133.021 23.2781 130.953 24.1262 128.529 24.1262C126.105 24.1262 124.037 23.2781 122.326 21.582C120.615 19.8859 119.76 17.8377 119.76 15.4323C119.76 13.0269 120.615 10.9787 122.326 9.28254ZM128.563 9.94043C127 9.94043 125.696 10.4673 124.654 11.5235C123.612 12.5797 123.091 13.8826 123.091 15.4323C123.091 16.9819 123.617 18.2566 124.672 19.3231C125.727 20.3896 127.023 20.9241 128.563 20.9241C130.102 20.9241 131.388 20.3973 132.42 19.3411C133.451 18.2848 133.967 16.9819 133.967 15.4323C133.967 13.8826 133.451 12.5797 132.42 11.5235C131.388 10.4673 130.102 9.94043 128.563 9.94043Z" fill="black"/>
<path d="M140.916 9.28254C142.627 7.58641 144.693 6.73835 147.119 6.73835C149.546 6.73835 151.611 7.58641 153.322 9.28254C155.033 10.9787 155.889 13.0294 155.889 15.4323C155.889 17.8351 155.033 19.8859 153.322 21.582C151.611 23.2781 149.543 24.1262 147.119 24.1262C144.696 24.1262 142.627 23.2781 140.916 21.582C139.206 19.8859 138.35 17.8377 138.35 15.4323C138.35 13.0269 139.206 10.9787 140.916 9.28254ZM147.153 9.94043C145.59 9.94043 144.286 10.4673 143.244 11.5235C142.202 12.5797 141.681 13.8826 141.681 15.4323C141.681 16.9819 142.207 18.2566 143.262 19.3231C144.317 20.3896 145.613 20.9241 147.153 20.9241C148.693 20.9241 149.978 20.3973 151.01 19.3411C152.042 18.2848 152.558 16.9819 152.558 15.4323C152.558 13.8826 152.042 12.5797 151.01 11.5235C149.978 10.4673 148.693 9.94043 147.153 9.94043Z" fill="black"/>
<path d="M160.132 23.8563H157.423C157.252 23.8563 157.112 23.7176 157.112 23.548V0.578322C157.112 0.408709 157.252 0.269936 157.423 0.269936H160.132C160.303 0.269936 160.443 0.408709 160.443 0.578322V23.548C160.443 23.7176 160.303 23.8563 160.132 23.8563Z" fill="black"/>
<path d="M174.039 15.3498C173.02 14.6302 171.571 14.1419 169.479 13.8156C166.884 13.3735 165.477 12.9032 165.477 11.6877C165.477 10.7368 166.366 9.72172 168.865 9.72172C170.098 9.72172 171.045 10.1098 171.677 10.8782C171.975 11.2431 172.203 11.6903 172.351 12.2119C172.411 12.4175 172.6 12.5614 172.812 12.5614H175.244C175.42 12.5614 175.56 12.415 175.555 12.2402C175.552 12.1451 175.545 12.0526 175.537 12.0012C175.143 9.78854 173.805 8.57299 173.406 8.25175C172.237 7.31888 170.71 6.84345 168.865 6.84345C167.019 6.84345 165.285 7.31117 164.072 8.19521C162.838 9.09467 162.187 10.3359 162.187 11.7853C162.187 15.2316 165.373 16.2261 168.818 16.7915C172.079 17.272 172.52 18.1535 172.52 18.9528C172.52 20.2454 171.12 21.0472 168.867 21.0472C168.476 21.0472 168.103 21.0138 167.758 20.9521C167.75 20.947 167.74 20.9444 167.729 20.9418C166.21 20.6386 165.207 19.6877 164.655 18.0327C164.614 17.9068 164.494 17.8169 164.359 17.8169H161.71C161.529 17.8169 161.386 17.9711 161.399 18.1509C161.428 18.5416 161.508 18.9296 161.648 19.2971C161.817 19.7443 161.99 20.0552 162.001 20.0758C163.025 22.273 164.995 23.5837 167.698 23.8689C167.703 23.8689 167.706 23.8689 167.711 23.8689C168.09 23.9075 168.478 23.9281 168.867 23.9281C170.822 23.9281 172.587 23.4321 173.844 22.53C175.114 21.6177 175.812 20.3251 175.812 18.8911C175.812 17.3543 175.233 16.1978 174.041 15.3549L174.039 15.3498Z" fill="black"/>
<path d="M117.341 35.8368C117.341 36.7029 117.03 37.4302 116.421 38.0187C115.812 38.6072 115.063 38.9001 114.173 38.9001H109.461V28.0707H113.829C114.687 28.0707 115.405 28.3482 115.998 28.9213C116.592 29.4944 116.887 30.1908 116.887 31.026C116.887 31.9846 116.499 32.7427 115.7 33.285C116.698 33.7655 117.338 34.6778 117.338 35.8368H117.341ZM110.913 29.4173V32.7273H113.831C114.751 32.7273 115.454 32 115.454 31.0723C115.454 30.6225 115.298 30.2371 114.969 29.9133C114.658 29.5895 114.282 29.4173 113.831 29.4173H110.913ZM114.173 37.5535C115.156 37.5535 115.905 36.78 115.905 35.7906C115.905 35.31 115.734 34.8937 115.389 34.5519C115.063 34.2127 114.656 34.0405 114.173 34.0405H110.913V37.551H114.173V37.5535Z" fill="black"/>
<path d="M123.832 31.1648H125.284L122.1 39.3781C121.429 41.1256 120.198 42.0996 118.637 41.9917V40.7376C119.589 40.8147 120.291 40.2879 120.745 39.1597L120.885 38.8667L117.484 31.1622H118.935L121.587 37.2271L123.835 31.1622L123.832 31.1648Z" fill="black"/>
<path d="M133.834 28.0707C134.848 28.0707 135.675 28.41 136.346 29.0756C137.018 29.7412 137.36 30.561 137.36 31.5504C137.36 32.5398 137.015 33.3596 136.346 34.0252C135.675 34.6908 134.848 35.03 133.834 35.03H131.323V38.8977H129.871V28.0682H133.834V28.0707ZM133.834 33.6859C134.444 33.6859 134.941 33.4855 135.333 33.082C135.722 32.6657 135.926 32.1543 135.926 31.5504C135.926 30.3117 135.037 29.4148 133.834 29.4148H131.323V33.6834H133.834V33.6859Z" fill="black"/>
<path d="M138.407 28.8597C138.407 28.3637 138.812 27.9474 139.327 27.9474C139.843 27.9474 140.232 28.3637 140.232 28.8597C140.232 29.3557 139.825 29.7566 139.327 29.7566C138.83 29.7566 138.407 29.3531 138.407 28.8597ZM138.641 38.9002V31.1649H139.999V38.9002H138.641Z" fill="black"/>
<path d="M142.511 37.9416C141.731 37.1527 141.342 36.1941 141.342 35.0325C141.342 33.8709 141.731 32.9123 142.511 32.1388C143.291 31.3498 144.273 30.9644 145.445 30.9644C146.99 30.9644 148.286 31.7533 148.893 32.992L147.755 33.6422C147.366 32.8224 146.49 32.2801 145.445 32.2801C144.665 32.2801 144.009 32.5423 143.48 33.0691C142.964 33.5959 142.7 34.2435 142.7 35.0351C142.7 35.8266 142.964 36.4588 143.48 36.983C144.012 37.5099 144.667 37.772 145.445 37.772C146.49 37.772 147.363 37.2452 147.801 36.4254L148.955 37.091C148.284 38.3142 146.956 39.1032 145.445 39.1032C144.276 39.1032 143.291 38.7177 142.511 37.9442V37.9416Z" fill="black"/>
<path d="M152.654 34.4133C153.872 34.6755 155.495 35.1252 155.479 36.7802C155.479 37.4766 155.199 38.0497 154.652 38.466C154.105 38.8849 153.418 39.1008 152.56 39.1008C151.047 39.1008 149.909 38.3889 149.455 37.2916L150.624 36.626C150.873 37.3687 151.607 37.8339 152.558 37.8339C153.447 37.8339 154.103 37.51 154.103 36.7828C154.103 36.1788 153.416 35.8396 152.558 35.6392C151.324 35.3154 149.732 34.9119 149.732 33.2723C149.732 32.6067 149.997 32.049 150.513 31.6173C151.044 31.183 151.7 30.9671 152.493 30.9671C153.758 30.9671 154.803 31.571 155.303 32.5759L154.165 33.2106C153.885 32.545 153.323 32.2212 152.496 32.2212C151.731 32.2212 151.106 32.5913 151.106 33.2569C151.106 33.8608 151.793 34.1846 152.651 34.4159L152.654 34.4133Z" fill="black"/>
<path d="M163.033 31.1649H164.391V38.9003H163.033V37.5691C162.362 38.5893 161.379 39.1007 160.083 39.1007C158.992 39.1007 158.053 38.7152 157.291 37.9237C156.527 37.1348 156.135 36.1608 156.135 35.03C156.135 33.8993 156.524 32.9407 157.291 32.1517C158.056 31.3628 158.992 30.9619 160.083 30.9619C161.379 30.9619 162.362 31.4733 163.033 32.4935V31.1623V31.1649ZM162.237 37.0114C162.769 36.4692 163.033 35.819 163.033 35.03C163.033 34.2411 162.769 33.5909 162.237 33.0641C161.706 32.5218 161.05 32.2597 160.254 32.2597C159.458 32.2597 158.818 32.5218 158.289 33.0641C157.758 33.5909 157.494 34.2385 157.494 35.03C157.494 35.8215 157.758 36.4692 158.289 37.0114C158.821 37.5382 159.474 37.8004 160.254 37.8004C161.034 37.8004 161.706 37.5382 162.237 37.0114Z" fill="black"/>
<path d="M167.512 32.4654C167.966 31.5068 168.777 31.0263 169.946 31.0263V32.4346C169.275 32.4037 168.712 32.5733 168.23 32.9614C167.745 33.3469 167.512 33.9508 167.512 34.8014V38.9004H166.154V31.165H167.512V32.4654Z" fill="black"/>
<path d="M175.408 32.4651H173.331V36.6566C173.331 37.849 174.018 37.754 175.408 37.6923V38.9001C173.036 39.2085 171.976 38.5763 171.976 36.6566V32.4651H170.431V31.1648H171.976V29.4018L173.334 29.0009V31.1673H175.41V32.4677L175.408 32.4651Z" fill="black"/>
<path d="M23.8606 11.8292C23.8606 18.3618 18.5208 23.6558 11.9316 23.6558C5.3424 23.6558 0 18.3618 0 11.8292C0 5.29655 5.3424 1.52588e-05 11.9316 1.52588e-05C18.5208 1.52588e-05 23.8606 5.29398 23.8606 11.8266V11.8292Z" fill="url(#paint0_linear_308_13926)"/>
<path d="M17.8266 10.4336H5.71096C5.53988 10.4336 5.3999 10.2949 5.3999 10.1252V8.05391C5.3999 7.8843 5.53988 7.74552 5.71096 7.74552H10.5531C10.6412 7.74552 10.7138 7.67357 10.7138 7.58619V3.90869C10.7138 3.64142 11.0352 3.50007 11.2348 3.68254L18.0392 9.89652C18.2465 10.0867 18.1118 10.4311 17.8292 10.4311L17.8266 10.4336Z" fill="white"/>
<path d="M6.19638 13.1011H18.312C18.4831 13.1011 18.6231 13.2398 18.6231 13.4094V15.4808C18.6231 15.6504 18.4831 15.7892 18.312 15.7892H13.4699C13.3818 15.7892 13.3092 15.8611 13.3092 15.9485V19.626C13.3092 19.8933 12.9878 20.0346 12.7882 19.8521L5.98382 13.6382C5.77645 13.448 5.91124 13.1036 6.19378 13.1036L6.19638 13.1011Z" fill="white"/>
<defs>
<linearGradient id="paint0_linear_308_13926" x1="17.1009" y1="1.46228e-05" x2="4.80025" y2="22.2012" gradientUnits="userSpaceOnUse">
<stop offset="0.281171" stop-color="#42449C"/>
<stop offset="1" stop-color="#FABBFF"/>
</linearGradient>
</defs>
</svg>
