<svg width="152" height="40" viewBox="0 0 152 40" fill="none" xmlns="http://www.w3.org/2000/svg">
<g clip-path="url(#clip0_308_13963)">
<path d="M31.9609 25.0156L36.4609 29.5391C36.6172 29.6797 36.7969 29.75 37 29.75C37.2031 29.75 37.3828 29.6797 37.5391 29.5391C37.6797 29.3828 37.75 29.2031 37.75 29C37.75 28.7969 37.6797 28.6172 37.5391 28.4609L33.0156 23.9609C33.6406 23.2266 34.125 22.3906 34.4688 21.4531C34.8281 20.5156 35.0078 19.5312 35.0078 18.5C35.0078 17.3281 34.7812 16.2266 34.3281 15.1953C33.8906 14.1641 33.2812 13.2656 32.5 12.5C31.7344 11.7188 30.8359 11.1094 29.8047 10.6719C28.7734 10.2188 27.6719 9.99219 26.5 9.99219C25.3281 9.99219 24.2266 10.2188 23.1953 10.6719C22.1641 11.1094 21.2578 11.7188 20.4766 12.5C19.7109 13.2656 19.1094 14.1641 18.6719 15.1953C18.2188 16.2266 17.9922 17.3281 17.9922 18.5C17.9922 19.6719 18.2188 20.7734 18.6719 21.8047C19.1094 22.8359 19.7109 23.7422 20.4766 24.5234C21.2578 25.2891 22.1641 25.8906 23.1953 26.3281C24.2266 26.7812 25.3281 27.0078 26.5 27.0078C27.5312 27.0078 28.5156 26.8359 29.4531 26.4922C30.3906 26.1328 31.2266 25.6406 31.9609 25.0156ZM33.5078 18.5C33.5078 19.4688 33.3203 20.375 32.9453 21.2188C32.5859 22.0781 32.0859 22.8281 31.4453 23.4688C30.8203 24.0938 30.0781 24.5859 29.2188 24.9453C28.375 25.3203 27.4688 25.5078 26.5 25.5078C25.5312 25.5078 24.625 25.3203 23.7812 24.9453C22.9219 24.5859 22.1719 24.0938 21.5312 23.4688C20.9062 22.8281 20.4141 22.0781 20.0547 21.2188C19.6797 20.375 19.4922 19.4688 19.4922 18.5C19.4922 17.5312 19.6797 16.625 20.0547 15.7812C20.4141 14.9219 20.9062 14.1797 21.5312 13.5547C22.1719 12.9141 22.9219 12.4141 23.7812 12.0547C24.625 11.6797 25.5312 11.4922 26.5 11.4922C27.4688 11.4922 28.375 11.6797 29.2188 12.0547C30.0781 12.4141 30.8203 12.9141 31.4453 13.5547C32.0859 14.1797 32.5859 14.9219 32.9453 15.7812C33.3203 16.625 33.5078 17.5312 33.5078 18.5Z" fill="#4C4C4C"/>
</g>
<path d="M56.816 25.208C59.104 25.208 60.688 23.96 60.688 21.992C60.688 19.832 58.848 19.256 56.896 18.616C55.328 18.12 54.544 17.736 54.544 16.696C54.544 15.672 55.376 15.032 56.576 15.032C57.936 15.032 58.72 15.8 59.12 16.76L60.368 16.04C59.744 14.632 58.416 13.592 56.576 13.592C54.704 13.592 53.056 14.744 53.056 16.76C53.056 18.84 54.784 19.4 56.576 19.976C58.224 20.488 59.216 20.872 59.216 22.024C59.216 23.032 58.432 23.752 56.848 23.752C55.216 23.752 54.256 22.952 53.856 21.72L52.576 22.456C53.168 24.136 54.688 25.208 56.816 25.208ZM63.282 21.64H69.986C70.018 21.432 70.034 21.224 70.034 21.016C70.034 18.776 68.466 16.792 66.05 16.792C63.554 16.792 61.858 18.632 61.858 21C61.858 23.4 63.57 25.208 66.146 25.208C67.746 25.208 68.962 24.488 69.666 23.4L68.482 22.728C68.082 23.384 67.282 23.896 66.178 23.896C64.69 23.896 63.554 23.08 63.282 21.64ZM66.05 18.104C67.25 18.104 68.386 18.84 68.626 20.424H63.282C63.506 19.032 64.546 18.104 66.05 18.104ZM78.2581 17V18.376C77.6181 17.4 76.5941 16.792 75.2341 16.792C73.0101 16.792 71.1861 18.632 71.1861 21C71.1861 23.368 73.0101 25.208 75.2341 25.208C76.5941 25.208 77.6181 24.6 78.2581 23.624V25H79.6501V17H78.2581ZM75.4101 23.864C73.8101 23.864 72.5781 22.632 72.5781 21C72.5781 19.368 73.8101 18.136 75.4101 18.136C77.0261 18.136 78.2581 19.368 78.2581 21C78.2581 22.632 77.0261 23.864 75.4101 23.864ZM83.1511 18.344V17H81.7591V25H83.1511V20.76C83.1511 18.872 84.4471 18.264 85.6471 18.312V16.856C84.6391 16.856 83.6631 17.224 83.1511 18.344ZM90.7691 25.208C92.3371 25.208 93.6971 24.376 94.3691 23.128L93.1851 22.44C92.7371 23.272 91.8571 23.832 90.7691 23.832C89.1691 23.832 87.9531 22.6 87.9531 21C87.9531 19.384 89.1691 18.152 90.7691 18.152C91.8411 18.152 92.7371 18.712 93.1371 19.56L94.3051 18.888C93.6971 17.624 92.3531 16.792 90.7691 16.792C88.3531 16.792 86.5611 18.632 86.5611 21C86.5611 23.368 88.3531 25.208 90.7691 25.208ZM99.7431 16.792C98.6231 16.792 97.7431 17.208 97.1511 18.152V13.8H95.7591V25H97.1511V20.76C97.1511 18.872 98.1911 18.12 99.4711 18.12C100.703 18.12 101.455 18.856 101.455 20.168V25H102.847V20.088C102.847 18.04 101.615 16.792 99.7431 16.792Z" fill="#4C4C4C"/>
<rect x="1" y="1" width="150" height="38" rx="11" stroke="#E3E3E3" stroke-width="2"/>
<defs>
<clipPath id="clip0_308_13963">
<rect width="24" height="24" fill="white" transform="translate(16 8)"/>
</clipPath>
</defs>
</svg>
