<svg width="22" height="22" viewBox="0 0 22 22" fill="none" xmlns="http://www.w3.org/2000/svg">
<path d="M17.2578 0.992188C16.2109 0.992188 15.3203 1.35937 14.5859 2.09375C13.8672 2.82813 13.5078 3.71094 13.5078 4.74219C13.5078 4.89844 13.5156 5.04688 13.5312 5.1875C13.5469 5.32812 13.5703 5.46875 13.6016 5.60938L7.74219 8.75C7.39844 8.29688 6.96875 7.9375 6.45312 7.67188C5.9375 7.39062 5.36719 7.25 4.74219 7.25C3.71094 7.25 2.82812 7.61719 2.09375 8.35156C1.35938 9.08594 0.992188 9.96875 0.992188 11C0.992188 12.0312 1.35938 12.9141 2.09375 13.6484C2.82812 14.3828 3.71094 14.75 4.74219 14.75C5.35156 14.75 5.91406 14.6172 6.42969 14.3516C6.96094 14.0703 7.39844 13.7031 7.74219 13.25L13.5781 16.4844C13.5469 16.6094 13.5234 16.7344 13.5078 16.8594C13.5078 16.9844 13.5078 17.1172 13.5078 17.2578C13.5078 18.2891 13.8672 19.1719 14.5859 19.9062C15.3203 20.6406 16.2109 21.0078 17.2578 21.0078C18.2891 21.0078 19.1719 20.6406 19.9062 19.9062C20.6406 19.1719 21.0078 18.2891 21.0078 17.2578C21.0078 16.2109 20.6406 15.3281 19.9062 14.6094C19.1719 13.875 18.2891 13.5078 17.2578 13.5078C16.6328 13.5078 16.0547 13.6484 15.5234 13.9297C14.9922 14.2109 14.5547 14.5859 14.2109 15.0547L8.39844 11.8438C8.42969 11.7188 8.45312 11.5859 8.46875 11.4453C8.48438 11.2891 8.49219 11.1406 8.49219 11C8.49219 10.8594 8.48438 10.7188 8.46875 10.5781C8.45312 10.4375 8.42969 10.2969 8.39844 10.1562L14.2578 7.01562C14.6016 7.46875 15.0312 7.82812 15.5469 8.09375C16.0781 8.35938 16.6484 8.49219 17.2578 8.49219C18.2891 8.49219 19.1719 8.13281 19.9062 7.41406C20.6406 6.67969 21.0078 5.78906 21.0078 4.74219C21.0078 3.71094 20.6406 2.82813 19.9062 2.09375C19.1719 1.35937 18.2891 0.992188 17.2578 0.992188ZM15.0078 4.74219C15.0078 4.13281 15.2266 3.60937 15.6641 3.17188C16.1016 2.71875 16.6328 2.49219 17.2578 2.49219C17.8672 2.49219 18.3906 2.71875 18.8281 3.17188C19.2812 3.60937 19.5078 4.13281 19.5078 4.74219C19.5078 5.36719 19.2812 5.89844 18.8281 6.33594C18.3906 6.77344 17.8672 6.99219 17.2578 6.99219C16.6328 6.99219 16.1016 6.77344 15.6641 6.33594C15.2266 5.89844 15.0078 5.36719 15.0078 4.74219ZM2.49219 11C2.49219 10.375 2.71094 9.84375 3.14844 9.40625C3.60156 8.96875 4.13281 8.75 4.74219 8.75C5.36719 8.75 5.89844 8.96875 6.33594 9.40625C6.77344 9.84375 6.99219 10.375 6.99219 11C6.99219 11.625 6.77344 12.1562 6.33594 12.5938C5.89844 13.0312 5.36719 13.25 4.74219 13.25C4.13281 13.25 3.60156 13.0312 3.14844 12.5938C2.71094 12.1562 2.49219 11.625 2.49219 11ZM17.2578 15.0078C17.8672 15.0078 18.3906 15.2266 18.8281 15.6641C19.2812 16.1016 19.5078 16.6328 19.5078 17.2578C19.5078 17.8672 19.2812 18.3984 18.8281 18.8516C18.3906 19.2891 17.8672 19.5078 17.2578 19.5078C16.6328 19.5078 16.1016 19.2891 15.6641 18.8516C15.2266 18.3984 15.0078 17.8672 15.0078 17.2578C15.0078 16.6328 15.2266 16.1016 15.6641 15.6641C16.1016 15.2266 16.6328 15.0078 17.2578 15.0078Z" fill="black"/>
</svg>
