<svg width="56" height="24" viewBox="0 0 56 24" fill="none" xmlns="http://www.w3.org/2000/svg">
<path d="M8.16152 7.2H1.02152V8.74H3.79352V17H5.40352V8.74H8.16152V7.2ZM9.18626 14.144H14.7583C14.7863 13.948 14.8143 13.724 14.8143 13.514C14.8143 11.498 13.3863 9.818 11.3003 9.818C9.10226 9.818 7.60426 11.428 7.60426 13.5C7.60426 15.6 9.10226 17.182 11.4123 17.182C12.7843 17.182 13.8343 16.608 14.4783 15.656L13.2323 14.928C12.8963 15.418 12.2663 15.796 11.4263 15.796C10.3063 15.796 9.42426 15.236 9.18626 14.144ZM9.17226 12.912C9.38226 11.862 10.1523 11.19 11.2863 11.19C12.1963 11.19 13.0783 11.708 13.2883 12.912H9.17226ZM22.0472 17L19.4292 13.416L21.9212 10H20.1572L18.5472 12.212L16.9372 10H15.1872L17.6792 13.402L15.0472 17H16.8112L18.5612 14.606L20.2972 17H22.0472ZM26.9687 11.456V10H25.2327V8.04L23.7207 8.488V10H22.4327V11.456H23.7207V14.816C23.7207 16.636 24.6447 17.28 26.9687 17V15.642C25.8207 15.698 25.2327 15.712 25.2327 14.816V11.456H26.9687Z" fill="#222222"/>
<g clip-path="url(#clip0_308_13958)">
<path d="M41.3506 10.9688C41.1943 10.8281 41.0146 10.7578 40.8115 10.7578C40.6084 10.7578 40.4287 10.8281 40.2725 10.9688C40.1318 11.1094 40.0615 11.2891 40.0615 11.5078C40.0615 11.7109 40.1318 11.8828 40.2725 12.0234L43.2725 15.0234C43.4287 15.1797 43.6084 15.2578 43.8115 15.2578C44.0146 15.2578 44.1943 15.1797 44.3506 15.0234L47.3506 12.0234C47.4912 11.8828 47.5615 11.7109 47.5615 11.5078C47.5615 11.2891 47.4912 11.1094 47.3506 10.9688C47.1943 10.8281 47.0146 10.7578 46.8115 10.7578C46.6084 10.7578 46.4287 10.8281 46.2725 10.9688L43.8115 13.4297L41.3506 10.9688Z" fill="#C209C1"/>
</g>
<defs>
<clipPath id="clip0_308_13958">
<rect width="24" height="24" fill="white" transform="translate(31.8115)"/>
</clipPath>
</defs>
</svg>
