<svg width="73" height="24" viewBox="0 0 73 24" fill="none" xmlns="http://www.w3.org/2000/svg">
<path d="M4.28352 17H6.21552L9.61752 7.2H7.86752L5.24952 15.054L2.64552 7.2H0.881523L4.28352 17ZM11.0491 8.95C11.5811 8.95 12.0151 8.502 12.0151 7.984C12.0151 7.452 11.5811 7.018 11.0491 7.018C10.5171 7.018 10.0831 7.452 10.0831 7.984C10.0831 8.502 10.5171 8.95 11.0491 8.95ZM10.2931 17H11.8051V10H10.2931V17ZM19.1047 7.2V10.994C18.5727 10.266 17.7467 9.818 16.6547 9.818C14.7507 9.818 13.1687 11.414 13.1687 13.5C13.1687 15.572 14.7507 17.182 16.6547 17.182C17.7467 17.182 18.5727 16.734 19.1047 15.992V17H20.6167V7.2H19.1047ZM16.8927 15.74C15.6327 15.74 14.6807 14.802 14.6807 13.5C14.6807 12.198 15.6327 11.26 16.8927 11.26C18.1527 11.26 19.1047 12.198 19.1047 13.5C19.1047 14.802 18.1527 15.74 16.8927 15.74ZM23.5691 14.144H29.1411C29.1691 13.948 29.1971 13.724 29.1971 13.514C29.1971 11.498 27.7691 9.818 25.6831 9.818C23.4851 9.818 21.9871 11.428 21.9871 13.5C21.9871 15.6 23.4851 17.182 25.7951 17.182C27.1671 17.182 28.2171 16.608 28.8611 15.656L27.6151 14.928C27.2791 15.418 26.6491 15.796 25.8091 15.796C24.6891 15.796 23.8071 15.236 23.5691 14.144ZM23.5551 12.912C23.7651 11.862 24.5351 11.19 25.6691 11.19C26.5791 11.19 27.4611 11.708 27.6711 12.912H23.5551ZM33.7905 17.182C35.8485 17.182 37.4865 15.572 37.4865 13.5C37.4865 11.414 35.8485 9.818 33.7905 9.818C31.7465 9.818 30.0945 11.414 30.0945 13.5C30.0945 15.572 31.7465 17.182 33.7905 17.182ZM33.7905 15.712C32.5585 15.712 31.6065 14.774 31.6065 13.5C31.6065 12.226 32.5585 11.288 33.7905 11.288C35.0225 11.288 35.9745 12.226 35.9745 13.5C35.9745 14.774 35.0225 15.712 33.7905 15.712ZM40.075 11.932C40.075 11.428 40.551 11.19 41.097 11.19C41.671 11.19 42.161 11.442 42.413 11.988L43.687 11.274C43.197 10.35 42.245 9.818 41.097 9.818C39.669 9.818 38.535 10.644 38.535 11.96C38.535 14.466 42.301 13.766 42.301 15.012C42.301 15.572 41.783 15.796 41.111 15.796C40.341 15.796 39.781 15.418 39.557 14.788L38.255 15.544C38.703 16.552 39.711 17.182 41.111 17.182C42.623 17.182 43.841 16.426 43.841 15.026C43.841 12.436 40.075 13.206 40.075 11.932Z" fill="#222222"/>
<g clip-path="url(#clip0_308_13959)">
<path d="M58.3506 10.9688C58.1943 10.8281 58.0146 10.7578 57.8115 10.7578C57.6084 10.7578 57.4287 10.8281 57.2725 10.9688C57.1318 11.1094 57.0615 11.2891 57.0615 11.5078C57.0615 11.7109 57.1318 11.8828 57.2725 12.0234L60.2725 15.0234C60.4287 15.1797 60.6084 15.2578 60.8115 15.2578C61.0146 15.2578 61.1943 15.1797 61.3506 15.0234L64.3506 12.0234C64.4912 11.8828 64.5615 11.7109 64.5615 11.5078C64.5615 11.2891 64.4912 11.1094 64.3506 10.9688C64.1943 10.8281 64.0146 10.7578 63.8115 10.7578C63.6084 10.7578 63.4287 10.8281 63.2725 10.9688L60.8115 13.4297L58.3506 10.9688Z" fill="#C209C1"/>
</g>
<defs>
<clipPath id="clip0_308_13959">
<rect width="24" height="24" fill="white" transform="translate(48.8115)"/>
</clipPath>
</defs>
</svg>
